<svg xmlns="http://www.w3.org/2000/svg" width="360" height="56" viewBox="0 0 360 56" fill="none">
<path d="M0 0H360V56H0V0Z" fill="#180F0B"/>
<path d="M18.2689 37.4688V46H17.1556V37.4688H18.2689ZM21.0111 37.4688V38.3945H14.4193V37.4688H21.0111ZM23.0316 37V46H21.9477V37H23.0316ZM22.7738 42.5898L22.3227 42.5723C22.3266 42.1387 22.391 41.7383 22.516 41.3711C22.641 41 22.8168 40.6777 23.0434 40.4043C23.2699 40.1309 23.5395 39.9199 23.852 39.7715C24.1684 39.6191 24.518 39.543 24.9008 39.543C25.2133 39.543 25.4945 39.5859 25.7445 39.6719C25.9945 39.7539 26.2074 39.8867 26.3832 40.0703C26.5629 40.2539 26.6996 40.4922 26.7934 40.7852C26.8871 41.0742 26.934 41.4277 26.934 41.8457V46H25.8441V41.834C25.8441 41.502 25.7953 41.2363 25.6977 41.0371C25.6 40.834 25.4574 40.6875 25.2699 40.5977C25.0824 40.5039 24.852 40.457 24.5785 40.457C24.309 40.457 24.0629 40.5137 23.8402 40.627C23.6215 40.7402 23.432 40.8965 23.2719 41.0957C23.1156 41.2949 22.9926 41.5234 22.9027 41.7812C22.8168 42.0352 22.7738 42.3047 22.7738 42.5898ZM34.3276 39.1504H35.1596C35.1596 39.5762 35.103 39.9336 34.9897 40.2227C34.8803 40.5117 34.687 40.7285 34.4096 40.873C34.1323 41.0176 33.7416 41.0898 33.2377 41.0898V40.4219C33.5893 40.4219 33.8412 40.3789 33.9936 40.293C34.1459 40.2031 34.2397 40.0645 34.2748 39.877C34.31 39.6895 34.3276 39.4473 34.3276 39.1504ZM32.2709 44.5352V39.6602H33.3608V46H32.3237L32.2709 44.5352ZM32.476 43.1992L32.9272 43.1875C32.9272 43.6094 32.8823 44 32.7924 44.3594C32.7065 44.7148 32.5659 45.0234 32.3705 45.2852C32.1752 45.5469 31.9194 45.752 31.603 45.9004C31.2866 46.0449 30.9018 46.1172 30.4487 46.1172C30.1401 46.1172 29.8569 46.0723 29.5991 45.9824C29.3452 45.8926 29.1264 45.7539 28.9428 45.5664C28.7592 45.3789 28.6166 45.1348 28.5151 44.834C28.4174 44.5332 28.3686 44.1719 28.3686 43.75V39.6602H29.4526V43.7617C29.4526 44.0469 29.4838 44.2832 29.5463 44.4707C29.6127 44.6543 29.7006 44.8008 29.81 44.9102C29.9233 45.0156 30.0483 45.0898 30.185 45.1328C30.3256 45.1758 30.4702 45.1973 30.6186 45.1973C31.0795 45.1973 31.4448 45.1094 31.7143 44.9336C31.9838 44.7539 32.1772 44.5137 32.2944 44.2129C32.4155 43.9082 32.476 43.5703 32.476 43.1992ZM40.396 45.0215L42.1304 39.6602H43.2378L40.9585 46H40.232L40.396 45.0215ZM38.9487 39.6602L40.7359 45.0508L40.8589 46H40.1323L37.8355 39.6602H38.9487ZM45.2935 39.6602V46H44.2037V39.6602H45.2935ZM44.1216 37.9785C44.1216 37.8027 44.1744 37.6543 44.2798 37.5332C44.3892 37.4121 44.5494 37.3516 44.7603 37.3516C44.9673 37.3516 45.1255 37.4121 45.2349 37.5332C45.3482 37.6543 45.4048 37.8027 45.4048 37.9785C45.4048 38.1465 45.3482 38.291 45.2349 38.4121C45.1255 38.5293 44.9673 38.5879 44.7603 38.5879C44.5494 38.5879 44.3892 38.5293 44.2798 38.4121C44.1744 38.291 44.1216 38.1465 44.1216 37.9785ZM49.4996 46.1172C49.0582 46.1172 48.6578 46.043 48.2984 45.8945C47.943 45.7422 47.6363 45.5293 47.3785 45.2559C47.1246 44.9824 46.9293 44.6582 46.7926 44.2832C46.6559 43.9082 46.5875 43.498 46.5875 43.0527V42.8066C46.5875 42.291 46.6637 41.832 46.816 41.4297C46.9684 41.0234 47.1754 40.6797 47.4371 40.3984C47.6988 40.1172 47.9957 39.9043 48.3277 39.7598C48.6598 39.6152 49.0035 39.543 49.359 39.543C49.8121 39.543 50.2027 39.6211 50.5309 39.7773C50.8629 39.9336 51.1344 40.1523 51.3453 40.4336C51.5563 40.7109 51.7125 41.0391 51.8141 41.418C51.9156 41.793 51.9664 42.2031 51.9664 42.6484V43.1348H47.232V42.25H50.8824V42.168C50.8668 41.8867 50.8082 41.6133 50.7066 41.3477C50.609 41.082 50.4527 40.8633 50.2379 40.6914C50.023 40.5195 49.7301 40.4336 49.359 40.4336C49.1129 40.4336 48.8863 40.4863 48.6793 40.5918C48.4723 40.6934 48.2945 40.8457 48.1461 41.0488C47.9977 41.252 47.8824 41.5 47.8004 41.793C47.7184 42.0859 47.6773 42.4238 47.6773 42.8066V43.0527C47.6773 43.3535 47.7184 43.6367 47.8004 43.9023C47.8863 44.1641 48.0094 44.3945 48.1695 44.5938C48.3336 44.793 48.5309 44.9492 48.7613 45.0625C48.9957 45.1758 49.2613 45.2324 49.5582 45.2324C49.941 45.2324 50.2652 45.1543 50.5309 44.998C50.7965 44.8418 51.0289 44.6328 51.2281 44.3711L51.8844 44.8926C51.7477 45.0996 51.5738 45.2969 51.3629 45.4844C51.152 45.6719 50.8922 45.8242 50.5836 45.9414C50.2789 46.0586 49.9176 46.1172 49.4996 46.1172ZM49.6813 37L51.1344 38.5996V38.6582H50.232L49.3531 37.668L48.4801 38.6582H47.5895V38.5938L49.025 37H49.6813ZM48.6969 47.4414C48.6969 47.2656 48.7496 47.1172 48.8551 46.9961C48.9645 46.875 49.1246 46.8145 49.3355 46.8145C49.5426 46.8145 49.7008 46.875 49.8102 46.9961C49.9234 47.1172 49.9801 47.2656 49.9801 47.4414C49.9801 47.6094 49.9234 47.752 49.8102 47.8691C49.7008 47.9902 49.5426 48.0508 49.3355 48.0508C49.1246 48.0508 48.9645 47.9902 48.8551 47.8691C48.7496 47.752 48.6969 47.6094 48.6969 47.4414ZM54.151 41.0137V46H53.067V39.6602H54.0924L54.151 41.0137ZM53.8932 42.5898L53.442 42.5723C53.4459 42.1387 53.5104 41.7383 53.6354 41.3711C53.7604 41 53.9362 40.6777 54.1627 40.4043C54.3893 40.1309 54.6588 39.9199 54.9713 39.7715C55.2877 39.6191 55.6373 39.543 56.0202 39.543C56.3327 39.543 56.6139 39.5859 56.8639 39.6719C57.1139 39.7539 57.3268 39.8867 57.5026 40.0703C57.6823 40.2539 57.819 40.4922 57.9127 40.7852C58.0065 41.0742 58.0534 41.4277 58.0534 41.8457V46H56.9635V41.834C56.9635 41.502 56.9147 41.2363 56.817 41.0371C56.7194 40.834 56.5768 40.6875 56.3893 40.5977C56.2018 40.5039 55.9713 40.457 55.6979 40.457C55.4284 40.457 55.1823 40.5137 54.9596 40.627C54.7409 40.7402 54.5514 40.8965 54.3913 41.0957C54.235 41.2949 54.112 41.5234 54.0221 41.7812C53.9362 42.0352 53.8932 42.3047 53.8932 42.5898Z" fill="white"/>
<path fill-rule="evenodd" clip-rule="evenodd" d="M27 16C27 15.4477 26.5523 15 26 15V15C25.4477 15 25 15.4477 25 16V31C25 32.1046 25.8954 33 27 33H42C42.5523 33 43 32.5523 43 32V32C43 31.4477 42.5523 31 42 31H28C27.4477 31 27 30.5523 27 30V16Z" fill="white"/>
<path fill-rule="evenodd" clip-rule="evenodd" d="M31 11C29.8954 11 29 11.8954 29 13V27C29 28.1046 29.8954 29 31 29H45C46.1046 29 47 28.1046 47 27V13C47 11.8954 46.1046 11 45 11H31ZM36.3333 26.0002C38.1743 26.0002 39.6667 24.5349 39.6667 22.7274C39.6667 22.7022 39.6664 22.6771 39.6658 22.652V16.1818H41.9991C42.5514 16.1818 42.9991 15.7341 42.9991 15.1818V15C42.9991 14.4477 42.5514 14 41.9991 14H39.6658H39.5547C39.0024 14 38.5547 14.4477 38.5547 15V15.1818V20.2873C37.9651 19.7695 37.1866 19.4547 36.3333 19.4547C34.4924 19.4547 33 20.9199 33 22.7274C33 24.5349 34.4924 26.0002 36.3333 26.0002Z" fill="white"/>
<path d="M90.1752 37.4688V46H89.0443V37.4688H90.1752ZM95.3255 37.4688L91.7806 41.4473L89.7884 43.5156L89.6009 42.3086L91.1009 40.6562L93.9662 37.4688H95.3255ZM94.2357 46L91.0775 41.8398L91.7513 40.9434L95.5834 46H94.2357ZM97.3344 37V46H96.2504V37H97.3344ZM97.0766 42.5898L96.6254 42.5723C96.6293 42.1387 96.6937 41.7383 96.8187 41.3711C96.9437 41 97.1195 40.6777 97.3461 40.4043C97.5727 40.1309 97.8422 39.9199 98.1547 39.7715C98.4711 39.6191 98.8207 39.543 99.2035 39.543C99.516 39.543 99.7973 39.5859 100.047 39.6719C100.297 39.7539 100.51 39.8867 100.686 40.0703C100.866 40.2539 101.002 40.4922 101.096 40.7852C101.19 41.0742 101.237 41.4277 101.237 41.8457V46H100.147V41.834C100.147 41.502 100.098 41.2363 100 41.0371C99.9027 40.834 99.7602 40.6875 99.5727 40.5977C99.3852 40.5039 99.1547 40.457 98.8812 40.457C98.6117 40.457 98.3656 40.5137 98.143 40.627C97.9242 40.7402 97.7348 40.8965 97.5746 41.0957C97.4184 41.2949 97.2953 41.5234 97.2055 41.7812C97.1195 42.0352 97.0766 42.3047 97.0766 42.5898ZM106.433 44.916V41.6523C106.433 41.4023 106.382 41.1855 106.281 41.002C106.183 40.8145 106.035 40.6699 105.835 40.5684C105.636 40.4668 105.39 40.416 105.097 40.416C104.824 40.416 104.583 40.4629 104.376 40.5566C104.173 40.6504 104.013 40.7734 103.896 40.9258C103.783 41.0781 103.726 41.2422 103.726 41.418H102.642C102.642 41.1914 102.701 40.9668 102.818 40.7441C102.935 40.5215 103.103 40.3203 103.322 40.1406C103.544 39.957 103.81 39.8125 104.119 39.707C104.431 39.5977 104.779 39.543 105.162 39.543C105.622 39.543 106.029 39.6211 106.38 39.7773C106.736 39.9336 107.013 40.1699 107.212 40.4863C107.415 40.7988 107.517 41.1914 107.517 41.6641V44.6172C107.517 44.8281 107.535 45.0527 107.57 45.291C107.609 45.5293 107.665 45.7344 107.74 45.9062V46H106.609C106.554 45.875 106.511 45.709 106.48 45.502C106.449 45.291 106.433 45.0957 106.433 44.916ZM106.621 42.1562L106.632 42.918H105.537C105.228 42.918 104.953 42.9434 104.71 42.9941C104.468 43.041 104.265 43.1133 104.101 43.2109C103.937 43.3086 103.812 43.4316 103.726 43.5801C103.64 43.7246 103.597 43.8945 103.597 44.0898C103.597 44.2891 103.642 44.4707 103.732 44.6348C103.822 44.7988 103.956 44.9297 104.136 45.0273C104.32 45.1211 104.544 45.168 104.81 45.168C105.142 45.168 105.435 45.0977 105.689 44.957C105.943 44.8164 106.144 44.6445 106.292 44.4414C106.445 44.2383 106.527 44.041 106.539 43.8496L107.001 44.3711C106.974 44.5352 106.9 44.7168 106.779 44.916C106.658 45.1152 106.496 45.3066 106.292 45.4902C106.093 45.6699 105.855 45.8203 105.578 45.9414C105.304 46.0586 104.996 46.1172 104.652 46.1172C104.222 46.1172 103.845 46.0332 103.521 45.8652C103.201 45.6973 102.951 45.4727 102.771 45.1914C102.595 44.9062 102.507 44.5879 102.507 44.2363C102.507 43.8965 102.574 43.5977 102.706 43.3398C102.839 43.0781 103.031 42.8613 103.281 42.6895C103.531 42.5137 103.831 42.3809 104.183 42.291C104.535 42.2012 104.927 42.1562 105.361 42.1562H106.621ZM104.681 38.7227L105.818 37H107.124L105.554 38.7227H104.681ZM110.135 40.9199V46H109.045V39.6602H110.077L110.135 40.9199ZM109.913 42.5898L109.409 42.5723C109.413 42.1387 109.469 41.7383 109.579 41.3711C109.688 41 109.85 40.6777 110.065 40.4043C110.28 40.1309 110.547 39.9199 110.868 39.7715C111.188 39.6191 111.559 39.543 111.981 39.543C112.278 39.543 112.551 39.5859 112.801 39.6719C113.051 39.7539 113.268 39.8848 113.452 40.0645C113.635 40.2441 113.778 40.4746 113.879 40.7559C113.981 41.0371 114.032 41.377 114.032 41.7754V46H112.948V41.8281C112.948 41.4961 112.891 41.2305 112.778 41.0312C112.668 40.832 112.512 40.6875 112.309 40.5977C112.106 40.5039 111.868 40.457 111.594 40.457C111.274 40.457 111.006 40.5137 110.791 40.627C110.577 40.7402 110.405 40.8965 110.276 41.0957C110.147 41.2949 110.053 41.5234 109.995 41.7812C109.94 42.0352 109.913 42.3047 109.913 42.5898ZM114.02 41.9922L113.293 42.2148C113.297 41.8672 113.354 41.5332 113.463 41.2129C113.577 40.8926 113.739 40.6074 113.95 40.3574C114.165 40.1074 114.428 39.9102 114.741 39.7656C115.053 39.6172 115.411 39.543 115.813 39.543C116.153 39.543 116.454 39.5879 116.715 39.6777C116.981 39.7676 117.204 39.9062 117.383 40.0938C117.567 40.2773 117.706 40.5137 117.799 40.8027C117.893 41.0918 117.94 41.4355 117.94 41.834V46H116.85V41.8223C116.85 41.4668 116.793 41.1914 116.68 40.9961C116.571 40.7969 116.415 40.6582 116.211 40.5801C116.012 40.498 115.774 40.457 115.497 40.457C115.258 40.457 115.047 40.498 114.864 40.5801C114.68 40.6621 114.526 40.7754 114.401 40.9199C114.276 41.0605 114.18 41.2227 114.114 41.4062C114.051 41.5898 114.02 41.7852 114.02 41.9922ZM123.311 40.8789V48.4375H122.221V39.6602H123.217L123.311 40.8789ZM127.583 42.7773V42.9004C127.583 43.3613 127.528 43.7891 127.419 44.1836C127.309 44.5742 127.149 44.9141 126.938 45.2031C126.731 45.4922 126.475 45.7168 126.17 45.877C125.866 46.0371 125.516 46.1172 125.122 46.1172C124.719 46.1172 124.364 46.0508 124.055 45.918C123.747 45.7852 123.485 45.5918 123.27 45.3379C123.055 45.084 122.883 44.7793 122.754 44.4238C122.629 44.0684 122.544 43.668 122.497 43.2227V42.5664C122.544 42.0977 122.631 41.6777 122.76 41.3066C122.889 40.9355 123.059 40.6191 123.27 40.3574C123.485 40.0918 123.745 39.8906 124.049 39.7539C124.354 39.6133 124.706 39.543 125.104 39.543C125.502 39.543 125.856 39.6211 126.165 39.7773C126.473 39.9297 126.733 40.1484 126.944 40.4336C127.155 40.7188 127.313 41.0605 127.419 41.459C127.528 41.8535 127.583 42.293 127.583 42.7773ZM126.493 42.9004V42.7773C126.493 42.4609 126.46 42.1641 126.393 41.8867C126.327 41.6055 126.223 41.3594 126.083 41.1484C125.946 40.9336 125.77 40.7656 125.555 40.6445C125.34 40.5195 125.085 40.457 124.788 40.457C124.514 40.457 124.276 40.5039 124.073 40.5977C123.874 40.6914 123.704 40.8184 123.563 40.9785C123.422 41.1348 123.307 41.3145 123.217 41.5176C123.131 41.7168 123.067 41.9238 123.024 42.1387V43.6562C123.102 43.9297 123.211 44.1875 123.352 44.4297C123.493 44.668 123.68 44.8613 123.915 45.0098C124.149 45.1543 124.444 45.2266 124.799 45.2266C125.092 45.2266 125.344 45.166 125.555 45.0449C125.77 44.9199 125.946 44.75 126.083 44.5352C126.223 44.3203 126.327 44.0742 126.393 43.7969C126.46 43.5156 126.493 43.2168 126.493 42.9004ZM129.884 37V46H128.8V37H129.884ZM129.627 42.5898L129.175 42.5723C129.179 42.1387 129.244 41.7383 129.369 41.3711C129.494 41 129.67 40.6777 129.896 40.4043C130.123 40.1309 130.392 39.9199 130.705 39.7715C131.021 39.6191 131.371 39.543 131.754 39.543C132.066 39.543 132.347 39.5859 132.597 39.6719C132.847 39.7539 133.06 39.8867 133.236 40.0703C133.416 40.2539 133.552 40.4922 133.646 40.7852C133.74 41.0742 133.787 41.4277 133.787 41.8457V46H132.697V41.834C132.697 41.502 132.648 41.2363 132.55 41.0371C132.453 40.834 132.31 40.6875 132.123 40.5977C131.935 40.5039 131.705 40.457 131.431 40.457C131.162 40.457 130.916 40.5137 130.693 40.627C130.474 40.7402 130.285 40.8965 130.125 41.0957C129.968 41.2949 129.845 41.5234 129.755 41.7812C129.67 42.0352 129.627 42.3047 129.627 42.5898ZM138.983 44.916V41.6523C138.983 41.4023 138.932 41.1855 138.831 41.002C138.733 40.8145 138.585 40.6699 138.385 40.5684C138.186 40.4668 137.94 40.416 137.647 40.416C137.374 40.416 137.133 40.4629 136.926 40.5566C136.723 40.6504 136.563 40.7734 136.446 40.9258C136.333 41.0781 136.276 41.2422 136.276 41.418H135.192C135.192 41.1914 135.251 40.9668 135.368 40.7441C135.485 40.5215 135.653 40.3203 135.872 40.1406C136.094 39.957 136.36 39.8125 136.669 39.707C136.981 39.5977 137.329 39.543 137.712 39.543C138.173 39.543 138.579 39.6211 138.93 39.7773C139.286 39.9336 139.563 40.1699 139.762 40.4863C139.965 40.7988 140.067 41.1914 140.067 41.6641V44.6172C140.067 44.8281 140.085 45.0527 140.12 45.291C140.159 45.5293 140.215 45.7344 140.29 45.9062V46H139.159C139.104 45.875 139.061 45.709 139.03 45.502C138.999 45.291 138.983 45.0957 138.983 44.916ZM139.171 42.1562L139.182 42.918H138.087C137.778 42.918 137.503 42.9434 137.26 42.9941C137.018 43.041 136.815 43.1133 136.651 43.2109C136.487 43.3086 136.362 43.4316 136.276 43.5801C136.19 43.7246 136.147 43.8945 136.147 44.0898C136.147 44.2891 136.192 44.4707 136.282 44.6348C136.372 44.7988 136.506 44.9297 136.686 45.0273C136.87 45.1211 137.094 45.168 137.36 45.168C137.692 45.168 137.985 45.0977 138.239 44.957C138.493 44.8164 138.694 44.6445 138.842 44.4414C138.995 44.2383 139.077 44.041 139.089 43.8496L139.551 44.3711C139.524 44.5352 139.45 44.7168 139.329 44.916C139.208 45.1152 139.046 45.3066 138.842 45.4902C138.643 45.6699 138.405 45.8203 138.128 45.9414C137.854 46.0586 137.546 46.1172 137.202 46.1172C136.772 46.1172 136.395 46.0332 136.071 45.8652C135.751 45.6973 135.501 45.4727 135.321 45.1914C135.145 44.9062 135.057 44.5879 135.057 44.2363C135.057 43.8965 135.124 43.5977 135.256 43.3398C135.389 43.0781 135.581 42.8613 135.831 42.6895C136.081 42.5137 136.381 42.3809 136.733 42.291C137.085 42.2012 137.477 42.1562 137.911 42.1562H139.171ZM137.231 38.7227L138.368 37H139.674L138.104 38.7227H137.231Z" fill="white"/>
<path fill-rule="evenodd" clip-rule="evenodd" d="M114.556 33C120.631 33 125.556 28.0751 125.556 22H124.556C124.556 22.9268 124.427 23.8546 124.169 24.7564L119.362 23.3782C119.492 22.9273 119.556 22.4634 119.556 22H118.544C118.544 24.2022 116.758 25.9875 114.556 25.9875C112.354 25.9875 110.569 24.2022 110.569 22H109.556C109.556 22.5797 109.657 23.1586 109.858 23.7101L105.159 25.4202C104.758 24.3173 104.556 23.1595 104.556 22H103.556C103.556 28.0751 108.481 33 114.556 33ZM111.556 22C111.556 23.6569 112.899 25 114.556 25C116.213 25 117.556 23.6569 117.556 22H116.551C116.551 23.1018 115.658 23.995 114.556 23.995C113.454 23.995 112.561 23.1018 112.561 22H111.556Z" fill="white"/>
<path fill-rule="evenodd" clip-rule="evenodd" d="M125.556 22C125.556 15.9249 120.631 11 114.556 11C108.481 11 103.556 15.9249 103.556 22H104.556C104.556 21.0732 104.685 20.1454 104.944 19.2436L109.75 20.6218C109.621 21.0727 109.556 21.5366 109.556 22H110.569C110.569 19.7978 112.354 18.0125 114.556 18.0125C116.758 18.0125 118.544 19.7978 118.544 22H119.556C119.556 21.4203 119.455 20.8414 119.255 20.2899L123.953 18.5798C124.355 19.6827 124.556 20.8405 124.556 22H125.556ZM117.556 22C117.556 20.3431 116.213 19 114.556 19C112.899 19 111.556 20.3431 111.556 22H112.561C112.561 20.8982 113.454 20.005 114.556 20.005C115.658 20.005 116.551 20.8982 116.551 22H117.556Z" fill="white"/>
<path d="M175.805 44.7051L178.318 37.4688H179.543L176.385 46H175.512L175.805 44.7051ZM173.455 37.4688L175.945 44.7051L176.256 46H175.383L172.23 37.4688H173.455ZM181.54 39.6602V46H180.45V39.6602H181.54ZM180.368 37.9785C180.368 37.8027 180.421 37.6543 180.526 37.5332C180.636 37.4121 180.796 37.3516 181.007 37.3516C181.214 37.3516 181.372 37.4121 181.481 37.5332C181.595 37.6543 181.651 37.8027 181.651 37.9785C181.651 38.1465 181.595 38.291 181.481 38.4121C181.372 38.5293 181.214 38.5879 181.007 38.5879C180.796 38.5879 180.636 38.5293 180.526 38.4121C180.421 38.291 180.368 38.1465 180.368 37.9785ZM187.111 44.7695V37H188.201V46H187.205L187.111 44.7695ZM182.846 42.9004V42.7773C182.846 42.293 182.904 41.8535 183.021 41.459C183.143 41.0605 183.312 40.7188 183.531 40.4336C183.754 40.1484 184.018 39.9297 184.322 39.7773C184.631 39.6211 184.975 39.543 185.354 39.543C185.752 39.543 186.1 39.6133 186.396 39.7539C186.697 39.8906 186.951 40.0918 187.158 40.3574C187.369 40.6191 187.535 40.9355 187.656 41.3066C187.777 41.6777 187.861 42.0977 187.908 42.5664V43.1055C187.865 43.5703 187.781 43.9883 187.656 44.3594C187.535 44.7305 187.369 45.0469 187.158 45.3086C186.951 45.5703 186.697 45.7715 186.396 45.9121C186.096 46.0488 185.744 46.1172 185.342 46.1172C184.971 46.1172 184.631 46.0371 184.322 45.877C184.018 45.7168 183.754 45.4922 183.531 45.2031C183.312 44.9141 183.143 44.5742 183.021 44.1836C182.904 43.7891 182.846 43.3613 182.846 42.9004ZM183.936 42.7773V42.9004C183.936 43.2168 183.967 43.5137 184.029 43.791C184.096 44.0684 184.197 44.3125 184.334 44.5234C184.471 44.7344 184.645 44.9004 184.855 45.0215C185.066 45.1387 185.318 45.1973 185.611 45.1973C185.971 45.1973 186.266 45.1211 186.496 44.9688C186.73 44.8164 186.918 44.6152 187.059 44.3652C187.199 44.1152 187.309 43.8438 187.387 43.5508V42.1387C187.34 41.9238 187.271 41.7168 187.182 41.5176C187.096 41.3145 186.982 41.1348 186.842 40.9785C186.705 40.8184 186.535 40.6914 186.332 40.5977C186.133 40.5039 185.896 40.457 185.623 40.457C185.326 40.457 185.07 40.5195 184.855 40.6445C184.645 40.7656 184.471 40.9336 184.334 41.1484C184.197 41.3594 184.096 41.6055 184.029 41.8867C183.967 42.1641 183.936 42.4609 183.936 42.7773ZM192.355 46.1172C191.913 46.1172 191.513 46.043 191.153 45.8945C190.798 45.7422 190.491 45.5293 190.233 45.2559C189.98 44.9824 189.784 44.6582 189.647 44.2832C189.511 43.9082 189.442 43.498 189.442 43.0527V42.8066C189.442 42.291 189.519 41.832 189.671 41.4297C189.823 41.0234 190.03 40.6797 190.292 40.3984C190.554 40.1172 190.851 39.9043 191.183 39.7598C191.515 39.6152 191.858 39.543 192.214 39.543C192.667 39.543 193.058 39.6211 193.386 39.7773C193.718 39.9336 193.989 40.1523 194.2 40.4336C194.411 40.7109 194.567 41.0391 194.669 41.418C194.771 41.793 194.821 42.2031 194.821 42.6484V43.1348H190.087V42.25H193.737V42.168C193.722 41.8867 193.663 41.6133 193.562 41.3477C193.464 41.082 193.308 40.8633 193.093 40.6914C192.878 40.5195 192.585 40.4336 192.214 40.4336C191.968 40.4336 191.741 40.4863 191.534 40.5918C191.327 40.6934 191.149 40.8457 191.001 41.0488C190.853 41.252 190.737 41.5 190.655 41.793C190.573 42.0859 190.532 42.4238 190.532 42.8066V43.0527C190.532 43.3535 190.573 43.6367 190.655 43.9023C190.741 44.1641 190.864 44.3945 191.024 44.5938C191.189 44.793 191.386 44.9492 191.616 45.0625C191.851 45.1758 192.116 45.2324 192.413 45.2324C192.796 45.2324 193.12 45.1543 193.386 44.998C193.651 44.8418 193.884 44.6328 194.083 44.3711L194.739 44.8926C194.603 45.0996 194.429 45.2969 194.218 45.4844C194.007 45.6719 193.747 45.8242 193.439 45.9414C193.134 46.0586 192.772 46.1172 192.355 46.1172ZM195.635 42.9004V42.7656C195.635 42.3086 195.701 41.8848 195.834 41.4941C195.967 41.0996 196.158 40.7578 196.408 40.4688C196.658 40.1758 196.961 39.9492 197.316 39.7891C197.672 39.625 198.07 39.543 198.512 39.543C198.957 39.543 199.358 39.625 199.713 39.7891C200.072 39.9492 200.377 40.1758 200.627 40.4688C200.881 40.7578 201.074 41.0996 201.207 41.4941C201.34 41.8848 201.406 42.3086 201.406 42.7656V42.9004C201.406 43.3574 201.34 43.7812 201.207 44.1719C201.074 44.5625 200.881 44.9043 200.627 45.1973C200.377 45.4863 200.074 45.7129 199.719 45.877C199.367 46.0371 198.969 46.1172 198.524 46.1172C198.078 46.1172 197.678 46.0371 197.322 45.877C196.967 45.7129 196.662 45.4863 196.408 45.1973C196.158 44.9043 195.967 44.5625 195.834 44.1719C195.701 43.7812 195.635 43.3574 195.635 42.9004ZM196.719 42.7656V42.9004C196.719 43.2168 196.756 43.5156 196.83 43.7969C196.904 44.0742 197.016 44.3203 197.164 44.5352C197.316 44.75 197.506 44.9199 197.733 45.0449C197.959 45.166 198.223 45.2266 198.524 45.2266C198.82 45.2266 199.08 45.166 199.303 45.0449C199.529 44.9199 199.717 44.75 199.865 44.5352C200.014 44.3203 200.125 44.0742 200.199 43.7969C200.277 43.5156 200.316 43.2168 200.316 42.9004V42.7656C200.316 42.4531 200.277 42.1582 200.199 41.8809C200.125 41.5996 200.012 41.3516 199.859 41.1367C199.711 40.918 199.524 40.7461 199.297 40.6211C199.074 40.4961 198.813 40.4336 198.512 40.4336C198.215 40.4336 197.953 40.4961 197.727 40.6211C197.504 40.7461 197.316 40.918 197.164 41.1367C197.016 41.3516 196.904 41.5996 196.83 41.8809C196.756 42.1582 196.719 42.4531 196.719 42.7656Z" fill="white"/>
<path fill-rule="evenodd" clip-rule="evenodd" d="M174 11C172.895 11 172 11.8954 172 13V28C172 29.1046 172.895 30 174 30H200C201.105 30 202 29.1046 202 28V13C202 11.8954 201.105 11 200 11H174ZM191.626 21.0568C192.253 20.6498 192.228 19.7228 191.579 19.3504L185.498 15.8597C184.831 15.4771 184 15.9583 184 16.727V24.16C184 24.9529 184.879 25.4304 185.544 24.9991L191.626 21.0568Z" fill="white"/>
<rect x="180" y="31" width="14" height="2" rx="1" fill="white"/>
<path d="M237.255 37.4688V46H236.141V37.4688H237.255ZM239.997 37.4688V38.3945H233.405V37.4688H239.997ZM240.06 42.9004V42.7656C240.06 42.3086 240.127 41.8848 240.26 41.4941C240.393 41.0996 240.584 40.7578 240.834 40.4688C241.084 40.1758 241.387 39.9492 241.742 39.7891C242.098 39.625 242.496 39.543 242.937 39.543C243.383 39.543 243.783 39.625 244.139 39.7891C244.498 39.9492 244.803 40.1758 245.053 40.4688C245.307 40.7578 245.5 41.0996 245.633 41.4941C245.766 41.8848 245.832 42.3086 245.832 42.7656V42.9004C245.832 43.3574 245.766 43.7812 245.633 44.1719C245.5 44.5625 245.307 44.9043 245.053 45.1973C244.803 45.4863 244.5 45.7129 244.144 45.877C243.793 46.0371 243.394 46.1172 242.949 46.1172C242.504 46.1172 242.103 46.0371 241.748 45.877C241.393 45.7129 241.088 45.4863 240.834 45.1973C240.584 44.9043 240.393 44.5625 240.26 44.1719C240.127 43.7812 240.06 43.3574 240.06 42.9004ZM241.144 42.7656V42.9004C241.144 43.2168 241.182 43.5156 241.256 43.7969C241.33 44.0742 241.441 44.3203 241.59 44.5352C241.742 44.75 241.932 44.9199 242.158 45.0449C242.385 45.166 242.648 45.2266 242.949 45.2266C243.246 45.2266 243.506 45.166 243.728 45.0449C243.955 44.9199 244.143 44.75 244.291 44.5352C244.439 44.3203 244.551 44.0742 244.625 43.7969C244.703 43.5156 244.742 43.2168 244.742 42.9004V42.7656C244.742 42.4531 244.703 42.1582 244.625 41.8809C244.551 41.5996 244.437 41.3516 244.285 41.1367C244.137 40.918 243.949 40.7461 243.723 40.6211C243.5 40.4961 243.238 40.4336 242.937 40.4336C242.641 40.4336 242.379 40.4961 242.152 40.6211C241.93 40.7461 241.742 40.918 241.59 41.1367C241.441 41.3516 241.33 41.5996 241.256 41.8809C241.182 42.1582 241.144 42.4531 241.144 42.7656ZM248.11 40.8789V48.4375H247.02V39.6602H248.017L248.11 40.8789ZM252.382 42.7773V42.9004C252.382 43.3613 252.327 43.7891 252.218 44.1836C252.108 44.5742 251.948 44.9141 251.737 45.2031C251.53 45.4922 251.274 45.7168 250.97 45.877C250.665 46.0371 250.315 46.1172 249.921 46.1172C249.519 46.1172 249.163 46.0508 248.854 45.918C248.546 45.7852 248.284 45.5918 248.069 45.3379C247.854 45.084 247.683 44.7793 247.554 44.4238C247.429 44.0684 247.343 43.668 247.296 43.2227V42.5664C247.343 42.0977 247.431 41.6777 247.56 41.3066C247.688 40.9355 247.858 40.6191 248.069 40.3574C248.284 40.0918 248.544 39.8906 248.849 39.7539C249.153 39.6133 249.505 39.543 249.903 39.543C250.302 39.543 250.655 39.6211 250.964 39.7773C251.272 39.9297 251.532 40.1484 251.743 40.4336C251.954 40.7188 252.112 41.0605 252.218 41.459C252.327 41.8535 252.382 42.293 252.382 42.7773ZM251.292 42.9004V42.7773C251.292 42.4609 251.259 42.1641 251.192 41.8867C251.126 41.6055 251.022 41.3594 250.882 41.1484C250.745 40.9336 250.569 40.7656 250.354 40.6445C250.14 40.5195 249.884 40.457 249.587 40.457C249.313 40.457 249.075 40.5039 248.872 40.5977C248.673 40.6914 248.503 40.8184 248.362 40.9785C248.222 41.1348 248.106 41.3145 248.017 41.5176C247.931 41.7168 247.866 41.9238 247.823 42.1387V43.6562C247.901 43.9297 248.011 44.1875 248.151 44.4297C248.292 44.668 248.479 44.8613 248.714 45.0098C248.948 45.1543 249.243 45.2266 249.599 45.2266C249.892 45.2266 250.144 45.166 250.354 45.0449C250.569 44.9199 250.745 44.75 250.882 44.5352C251.022 44.3203 251.126 44.0742 251.192 43.7969C251.259 43.5156 251.292 43.2168 251.292 42.9004ZM259.336 41.1367V42.0566H254.719V41.1367H259.336ZM254.895 37.4688V46H253.764V37.4688H254.895ZM260.32 37.4688V46H259.195V37.4688H260.32ZM263.179 39.6602V46H262.089V39.6602H263.179ZM262.007 37.9785C262.007 37.8027 262.06 37.6543 262.165 37.5332C262.274 37.4121 262.435 37.3516 262.646 37.3516C262.853 37.3516 263.011 37.4121 263.12 37.5332C263.233 37.6543 263.29 37.8027 263.29 37.9785C263.29 38.1465 263.233 38.291 263.12 38.4121C263.011 38.5293 262.853 38.5879 262.646 38.5879C262.435 38.5879 262.274 38.5293 262.165 38.4121C262.06 38.291 262.007 38.1465 262.007 37.9785ZM267.408 39.6602V40.4922H263.981V39.6602H267.408ZM265.141 38.1191H266.225V44.4297C266.225 44.6445 266.258 44.8066 266.324 44.916C266.391 45.0254 266.477 45.0977 266.582 45.1328C266.688 45.168 266.801 45.1855 266.922 45.1855C267.012 45.1855 267.106 45.1777 267.203 45.1621C267.305 45.1426 267.381 45.127 267.432 45.1152L267.438 46C267.352 46.0273 267.238 46.0527 267.098 46.0762C266.961 46.1035 266.795 46.1172 266.6 46.1172C266.334 46.1172 266.09 46.0645 265.867 45.959C265.645 45.8535 265.467 45.6777 265.334 45.4316C265.205 45.1816 265.141 44.8457 265.141 44.4238V38.1191ZM272.206 44.3184C272.206 44.1621 272.171 44.0176 272.101 43.8848C272.034 43.748 271.896 43.625 271.685 43.5156C271.478 43.4023 271.165 43.3047 270.747 43.2227C270.396 43.1484 270.077 43.0605 269.792 42.959C269.511 42.8574 269.271 42.7344 269.071 42.5898C268.876 42.4453 268.726 42.2754 268.62 42.0801C268.515 41.8848 268.462 41.6562 268.462 41.3945C268.462 41.1445 268.517 40.9082 268.626 40.6855C268.739 40.4629 268.898 40.2656 269.101 40.0938C269.308 39.9219 269.556 39.7871 269.845 39.6895C270.134 39.5918 270.456 39.543 270.812 39.543C271.319 39.543 271.753 39.6328 272.112 39.8125C272.472 39.9922 272.747 40.2324 272.939 40.5332C273.13 40.8301 273.226 41.1602 273.226 41.5234H272.142C272.142 41.3477 272.089 41.1777 271.984 41.0137C271.882 40.8457 271.732 40.707 271.532 40.5977C271.337 40.4883 271.097 40.4336 270.812 40.4336C270.511 40.4336 270.267 40.4805 270.079 40.5742C269.896 40.6641 269.761 40.7793 269.675 40.9199C269.593 41.0605 269.552 41.209 269.552 41.3652C269.552 41.4824 269.571 41.5879 269.61 41.6816C269.653 41.7715 269.728 41.8555 269.833 41.9336C269.939 42.0078 270.087 42.0781 270.278 42.1445C270.47 42.2109 270.714 42.2773 271.011 42.3438C271.53 42.4609 271.958 42.6016 272.294 42.7656C272.63 42.9297 272.88 43.1309 273.044 43.3691C273.208 43.6074 273.29 43.8965 273.29 44.2363C273.29 44.5137 273.232 44.7676 273.114 44.998C273.001 45.2285 272.835 45.4277 272.616 45.5957C272.401 45.7598 272.144 45.8887 271.843 45.9824C271.546 46.0723 271.212 46.1172 270.841 46.1172C270.282 46.1172 269.81 46.0176 269.423 45.8184C269.036 45.6191 268.743 45.3613 268.544 45.0449C268.345 44.7285 268.245 44.3945 268.245 44.043H269.335C269.351 44.3398 269.437 44.5762 269.593 44.752C269.749 44.9238 269.941 45.0469 270.167 45.1211C270.394 45.1914 270.618 45.2266 270.841 45.2266C271.138 45.2266 271.386 45.1875 271.585 45.1094C271.788 45.0312 271.942 44.9238 272.048 44.7871C272.153 44.6504 272.206 44.4941 272.206 44.3184Z" fill="white"/>
<path fill-rule="evenodd" clip-rule="evenodd" d="M241 13.5C241 12.1193 242.119 11 243.5 11H263.5C264.881 11 266 12.1193 266 13.5V25H261V23.5C261 23.2239 260.776 23 260.5 23H258.5C258.224 23 258 23.2239 258 23.5V25H255V16.5C255 16.2239 254.776 16 254.5 16H252.5C252.224 16 252 16.2239 252 16.5V25H249V19.5C249 19.2239 248.776 19 248.5 19H246.5C246.224 19 246 19.2239 246 19.5V25H241V13.5Z" fill="white"/>
<path fill-rule="evenodd" clip-rule="evenodd" d="M241 30.5V25H246V27.5C246 27.7761 246.224 28 246.5 28H248.5C248.776 28 249 27.7761 249 27.5V25H252V27.5C252 27.7761 252.224 28 252.5 28H254.5C254.776 28 255 27.7761 255 27.5V25H258V27.5C258 27.7761 258.224 28 258.5 28H260.5C260.776 28 261 27.7761 261 27.5V25H266V30.5C266 31.8807 264.881 33 263.5 33H243.5C242.119 33 241 31.8807 241 30.5Z" fill="white"/>
<path d="M326 11C319.928 11 315 15.928 315 22C315 28.072 319.928 33 326 33C332.072 33 337 28.072 337 22C337 15.928 332.072 11 326 11ZM326 14.3C327.826 14.3 329.3 15.774 329.3 17.6C329.3 19.426 327.826 20.9 326 20.9C324.174 20.9 322.7 19.426 322.7 17.6C322.7 15.774 324.174 14.3 326 14.3ZM326 29.92C323.25 29.92 320.819 28.512 319.4 26.378C319.433 24.189 323.8 22.99 326 22.99C328.189 22.99 332.567 24.189 332.6 26.378C331.181 28.512 328.75 29.92 326 29.92Z" fill="#EC6A2E"/>
<path d="M310.274 43.2871H311.399C311.34 43.8262 311.186 44.3086 310.936 44.7344C310.686 45.1602 310.332 45.498 309.875 45.748C309.418 45.9941 308.848 46.1172 308.164 46.1172C307.664 46.1172 307.209 46.0234 306.799 45.8359C306.393 45.6484 306.043 45.3828 305.75 45.0391C305.457 44.6914 305.231 44.2754 305.071 43.791C304.914 43.3027 304.836 42.7598 304.836 42.1621V41.3125C304.836 40.7148 304.914 40.1738 305.071 39.6895C305.231 39.2012 305.459 38.7832 305.756 38.4355C306.057 38.0879 306.418 37.8203 306.84 37.6328C307.262 37.4453 307.737 37.3516 308.264 37.3516C308.909 37.3516 309.453 37.4727 309.899 37.7148C310.344 37.957 310.69 38.293 310.936 38.7227C311.186 39.1484 311.34 39.6426 311.399 40.2051H310.274C310.219 39.8066 310.118 39.4648 309.969 39.1797C309.821 38.8906 309.61 38.668 309.336 38.5117C309.063 38.3555 308.705 38.2773 308.264 38.2773C307.885 38.2773 307.551 38.3496 307.262 38.4941C306.977 38.6387 306.737 38.8438 306.541 39.1094C306.35 39.375 306.205 39.6934 306.108 40.0645C306.01 40.4355 305.961 40.8477 305.961 41.3008V42.1621C305.961 42.5801 306.004 42.9727 306.09 43.3398C306.18 43.707 306.315 44.0293 306.495 44.3066C306.674 44.584 306.903 44.8027 307.18 44.9629C307.457 45.1191 307.786 45.1973 308.164 45.1973C308.645 45.1973 309.028 45.1211 309.313 44.9688C309.598 44.8164 309.813 44.5977 309.957 44.3125C310.106 44.0273 310.211 43.6855 310.274 43.2871ZM316.349 44.916V41.6523C316.349 41.4023 316.298 41.1855 316.197 41.002C316.099 40.8145 315.951 40.6699 315.751 40.5684C315.552 40.4668 315.306 40.416 315.013 40.416C314.74 40.416 314.499 40.4629 314.292 40.5566C314.089 40.6504 313.929 40.7734 313.812 40.9258C313.699 41.0781 313.642 41.2422 313.642 41.418H312.558C312.558 41.1914 312.617 40.9668 312.734 40.7441C312.851 40.5215 313.019 40.3203 313.238 40.1406C313.46 39.957 313.726 39.8125 314.035 39.707C314.347 39.5977 314.695 39.543 315.078 39.543C315.538 39.543 315.945 39.6211 316.296 39.7773C316.652 39.9336 316.929 40.1699 317.128 40.4863C317.331 40.7988 317.433 41.1914 317.433 41.6641V44.6172C317.433 44.8281 317.451 45.0527 317.486 45.291C317.525 45.5293 317.581 45.7344 317.656 45.9062V46H316.525C316.47 45.875 316.427 45.709 316.396 45.502C316.365 45.291 316.349 45.0957 316.349 44.916ZM316.537 42.1562L316.548 42.918H315.453C315.144 42.918 314.869 42.9434 314.626 42.9941C314.384 43.041 314.181 43.1133 314.017 43.2109C313.853 43.3086 313.728 43.4316 313.642 43.5801C313.556 43.7246 313.513 43.8945 313.513 44.0898C313.513 44.2891 313.558 44.4707 313.648 44.6348C313.738 44.7988 313.872 44.9297 314.052 45.0273C314.236 45.1211 314.46 45.168 314.726 45.168C315.058 45.168 315.351 45.0977 315.605 44.957C315.859 44.8164 316.06 44.6445 316.208 44.4414C316.361 44.2383 316.443 44.041 316.455 43.8496L316.917 44.3711C316.89 44.5352 316.816 44.7168 316.695 44.916C316.574 45.1152 316.412 45.3066 316.208 45.4902C316.009 45.6699 315.771 45.8203 315.494 45.9414C315.22 46.0586 314.912 46.1172 314.568 46.1172C314.138 46.1172 313.761 46.0332 313.437 45.8652C313.117 45.6973 312.867 45.4727 312.687 45.1914C312.511 44.9062 312.423 44.5879 312.423 44.2363C312.423 43.8965 312.49 43.5977 312.622 43.3398C312.755 43.0781 312.947 42.8613 313.197 42.6895C313.447 42.5137 313.747 42.3809 314.099 42.291C314.451 42.2012 314.843 42.1562 315.277 42.1562H316.537ZM314.597 38.7227L315.734 37H317.04L315.47 38.7227H314.597ZM322.869 41.0137V46H321.785V39.6602H322.81L322.869 41.0137ZM322.611 42.5898L322.16 42.5723C322.164 42.1387 322.228 41.7383 322.353 41.3711C322.478 41 322.654 40.6777 322.88 40.4043C323.107 40.1309 323.376 39.9199 323.689 39.7715C324.005 39.6191 324.355 39.543 324.738 39.543C325.05 39.543 325.332 39.5859 325.582 39.6719C325.832 39.7539 326.044 39.8867 326.22 40.0703C326.4 40.2539 326.537 40.4922 326.63 40.7852C326.724 41.0742 326.771 41.4277 326.771 41.8457V46H325.681V41.834C325.681 41.502 325.632 41.2363 325.535 41.0371C325.437 40.834 325.294 40.6875 325.107 40.5977C324.919 40.5039 324.689 40.457 324.416 40.457C324.146 40.457 323.9 40.5137 323.677 40.627C323.458 40.7402 323.269 40.8965 323.109 41.0957C322.953 41.2949 322.83 41.5234 322.74 41.7812C322.654 42.0352 322.611 42.3047 322.611 42.5898ZM329.336 37V46H328.252V37H329.336ZM329.079 42.5898L328.627 42.5723C328.631 42.1387 328.696 41.7383 328.821 41.3711C328.946 41 329.122 40.6777 329.348 40.4043C329.575 40.1309 329.844 39.9199 330.157 39.7715C330.473 39.6191 330.823 39.543 331.206 39.543C331.518 39.543 331.799 39.5859 332.049 39.6719C332.299 39.7539 332.512 39.8867 332.688 40.0703C332.868 40.2539 333.004 40.4922 333.098 40.7852C333.192 41.0742 333.239 41.4277 333.239 41.8457V46H332.149V41.834C332.149 41.502 332.1 41.2363 332.002 41.0371C331.905 40.834 331.762 40.6875 331.575 40.5977C331.387 40.5039 331.157 40.457 330.883 40.457C330.614 40.457 330.368 40.5137 330.145 40.627C329.926 40.7402 329.737 40.8965 329.577 41.0957C329.42 41.2949 329.297 41.5234 329.208 41.7812C329.122 42.0352 329.079 42.3047 329.079 42.5898ZM338.435 44.916V41.6523C338.435 41.4023 338.384 41.1855 338.283 41.002C338.185 40.8145 338.037 40.6699 337.837 40.5684C337.638 40.4668 337.392 40.416 337.099 40.416C336.826 40.416 336.586 40.4629 336.378 40.5566C336.175 40.6504 336.015 40.7734 335.898 40.9258C335.785 41.0781 335.728 41.2422 335.728 41.418H334.644C334.644 41.1914 334.703 40.9668 334.82 40.7441C334.937 40.5215 335.105 40.3203 335.324 40.1406C335.546 39.957 335.812 39.8125 336.121 39.707C336.433 39.5977 336.781 39.543 337.164 39.543C337.625 39.543 338.031 39.6211 338.382 39.7773C338.738 39.9336 339.015 40.1699 339.214 40.4863C339.418 40.7988 339.519 41.1914 339.519 41.6641V44.6172C339.519 44.8281 339.537 45.0527 339.572 45.291C339.611 45.5293 339.668 45.7344 339.742 45.9062V46H338.611C338.556 45.875 338.513 45.709 338.482 45.502C338.451 45.291 338.435 45.0957 338.435 44.916ZM338.623 42.1562L338.634 42.918H337.539C337.23 42.918 336.955 42.9434 336.712 42.9941C336.47 43.041 336.267 43.1133 336.103 43.2109C335.939 43.3086 335.814 43.4316 335.728 43.5801C335.642 43.7246 335.599 43.8945 335.599 44.0898C335.599 44.2891 335.644 44.4707 335.734 44.6348C335.824 44.7988 335.959 44.9297 336.138 45.0273C336.322 45.1211 336.546 45.168 336.812 45.168C337.144 45.168 337.437 45.0977 337.691 44.957C337.945 44.8164 338.146 44.6445 338.295 44.4414C338.447 44.2383 338.529 44.041 338.541 43.8496L339.003 44.3711C338.976 44.5352 338.902 44.7168 338.781 44.916C338.66 45.1152 338.498 45.3066 338.295 45.4902C338.095 45.6699 337.857 45.8203 337.58 45.9414C337.306 46.0586 336.998 46.1172 336.654 46.1172C336.224 46.1172 335.847 46.0332 335.523 45.8652C335.203 45.6973 334.953 45.4727 334.773 45.1914C334.597 44.9062 334.509 44.5879 334.509 44.2363C334.509 43.8965 334.576 43.5977 334.709 43.3398C334.841 43.0781 335.033 42.8613 335.283 42.6895C335.533 42.5137 335.834 42.3809 336.185 42.291C336.537 42.2012 336.929 42.1562 337.363 42.1562H338.623ZM337.609 37L339.062 38.5996V38.6582H338.16L337.281 37.668L336.408 38.6582H335.517V38.5938L336.953 37H337.609ZM342.143 41.0137V46H341.059V39.6602H342.085L342.143 41.0137ZM341.885 42.5898L341.434 42.5723C341.438 42.1387 341.503 41.7383 341.628 41.3711C341.753 41 341.928 40.6777 342.155 40.4043C342.381 40.1309 342.651 39.9199 342.963 39.7715C343.28 39.6191 343.63 39.543 344.012 39.543C344.325 39.543 344.606 39.5859 344.856 39.6719C345.106 39.7539 345.319 39.8867 345.495 40.0703C345.674 40.2539 345.811 40.4922 345.905 40.7852C345.999 41.0742 346.046 41.4277 346.046 41.8457V46H344.956V41.834C344.956 41.502 344.907 41.2363 344.809 41.0371C344.712 40.834 344.569 40.6875 344.381 40.5977C344.194 40.5039 343.963 40.457 343.69 40.457C343.421 40.457 343.174 40.5137 342.952 40.627C342.733 40.7402 342.544 40.8965 342.383 41.0957C342.227 41.2949 342.104 41.5234 342.014 41.7812C341.928 42.0352 341.885 42.3047 341.885 42.5898Z" fill="#EC6A2E"/>
</svg>